<svg xmlns="http://www.w3.org/2000/svg" height="27.000008" width="27.00576" id="svg3" version="1.1" class="h-6" aria-hidden="true" viewBox="0 0 27.005761 27.000008">
  <defs id="defs3"></defs>
  
  <path style="fill:#3b82f5;fill-opacity:1" id="path1" d="M 13.482,27 C 11.526,27 9.726,26.676 8.082,26.028 6.438,25.38 5.01,24.462 3.798,23.274 A 12.247,12.247 0 0 1 0.99,19.116 C 0.33,17.52 0,15.786 0,13.914 0,11.682 0.342,9.702 1.026,7.974 1.722,6.246 2.682,4.794 3.906,3.618 A 12.48,12.48 0 0 1 8.19,0.918 C 9.822,0.306 11.568,0 13.428,0 c 2.28,0 4.278,0.354 5.994,1.062 1.716,0.708 3.144,1.668 4.284,2.88 A 11.706,11.706 0 0 1 26.244,8.1 c 0.552,1.548 0.804,3.168 0.756,4.86 -0.06,2.328 -0.546,4.116 -1.458,5.364 -0.912,1.236 -2.328,1.854 -4.248,1.854 a 5.839,5.839 0 0 1 -2.826,-0.702 3.703,3.703 0 0 1 -1.764,-2.07 l 1.044,0.054 c -0.492,0.924 -1.164,1.572 -2.016,1.944 a 6.464,6.464 0 0 1 -2.61,0.558 c -1.212,0 -2.28,-0.258 -3.204,-0.774 A 5.682,5.682 0 0 1 7.74,16.974 C 7.212,16.026 6.948,14.928 6.948,13.68 c 0,-1.284 0.276,-2.394 0.828,-3.33 A 5.77,5.77 0 0 1 10.008,8.154 C 10.944,7.638 12,7.38 13.176,7.38 c 0.78,0 1.59,0.162 2.43,0.486 0.852,0.324 1.512,0.78 1.98,1.368 L 16.848,10.17 V 7.884 h 2.412 l -0.054,6.462 c 0,0.924 0.18,1.62 0.54,2.088 0.36,0.468 0.894,0.702 1.602,0.702 0.624,0 1.104,-0.174 1.44,-0.522 0.348,-0.36 0.588,-0.846 0.72,-1.458 A 10.66,10.66 0 0 0 23.76,13.05 C 23.796,11.19 23.52,9.624 22.932,8.352 22.344,7.08 21.546,6.054 20.538,5.274 a 9.499,9.499 0 0 0 -3.294,-1.71 c -1.2,-0.36 -2.394,-0.54 -3.582,-0.54 -1.68,0 -3.174,0.27 -4.482,0.81 -1.308,0.528 -2.412,1.278 -3.312,2.25 -0.888,0.96 -1.56,2.1 -2.016,3.42 -0.444,1.308 -0.654,2.748 -0.63,4.32 0.048,1.56 0.33,2.964 0.846,4.212 a 9.324,9.324 0 0 0 2.16,3.204 9.38,9.38 0 0 0 3.276,2.034 c 1.26,0.468 2.64,0.702 4.14,0.702 0.84,0 1.674,-0.096 2.502,-0.288 0.84,-0.18 1.608,-0.438 2.304,-0.774 l 1.026,2.808 c -0.924,0.432 -1.896,0.75 -2.916,0.954 A 14.649,14.649 0 0 1 13.482,27 Z M 13.338,16.902 c 0.852,0 1.566,-0.246 2.142,-0.738 0.576,-0.492 0.864,-1.326 0.864,-2.502 0,-1.068 -0.258,-1.872 -0.774,-2.412 -0.504,-0.552 -1.218,-0.828 -2.142,-0.828 -1.092,0 -1.908,0.288 -2.448,0.864 -0.54,0.576 -0.81,1.368 -0.81,2.376 0,1.032 0.276,1.83 0.828,2.394 0.564,0.564 1.344,0.846 2.34,0.846 z" class="fill-blue-500"></path>
</svg>
